<?xml version="1.0" encoding="iso-8859-1"?>
<!-- Uploaded to: SVG Repo, www.svgrepo.com, Generator: SVG Repo Mixer Tools -->
<svg fill="#000000" height="800px" width="800px" version="1.1" id="Capa_1" xmlns="http://www.w3.org/2000/svg" xmlns:xlink="http://www.w3.org/1999/xlink" 
	 viewBox="0 0 25.56 25.56" xml:space="preserve">
<g>
	<path d="M24.15,18.642V14.75c0-1.464-0.006-2.711-0.011-3.219l-4.844,3.396L24.15,18.642z"/>
	<path d="M1.41,18.499v-3.892c0-1.464,0.009-2.712,0.011-3.218l4.844,3.396L1.41,18.499z"/>
	<path d="M17.229,15.883l-4.061,2.849c-0.104,0.073-0.234,0.109-0.363,0.109s-0.257-0.036-0.366-0.109l-4.05-2.843l-6.798,5.203
		c-0.055,0.041-0.116,0.072-0.181,0.092v0.074l0.018,4.302h22.697l0.017-4.302v-0.089L17.229,15.883z"/>
	<path d="M17.499,0.061v3.124c0,0.647,0.526,1.174,1.176,1.174l2.421,0.071L17.499,0.061z"/>
	<path d="M21.143,10.494V5.339h-3.59c-0.648,0-1.174-0.526-1.174-1.175V0H5.582c-0.65,0-1.175,0.524-1.175,1.175v9.278l8.028,5.633
		c0.11,0.075,0.237,0.111,0.371,0.111c0.129,0,0.261-0.036,0.366-0.111L21.143,10.494z"/>
	<g>
	</g>
	<g>
	</g>
	<g>
	</g>
	<g>
	</g>
	<g>
	</g>
	<g>
	</g>
	<g>
	</g>
	<g>
	</g>
	<g>
	</g>
	<g>
	</g>
	<g>
	</g>
	<g>
	</g>
	<g>
	</g>
	<g>
	</g>
	<g>
	</g>
</g>
</svg>